<?xml version="1.0" standalone="no"?>
<!DOCTYPE svg PUBLIC "-//W3C//DTD SVG 1.1//EN" "http://www.w3.org/Graphics/SVG/1.1/DTD/svg11.dtd" >
<svg>
<metadata>
Created by FontForge 20090914 at Wed May 10 08:34:01 2017
 By www-data
Copyright (c) 2014 by NimaVisual. All rights reserved.
</metadata>
<defs>
<font id="Krunch-Bold" horiz-adv-x="630" >
  <font-face 
    font-family="Krunch"
    font-weight="700"
    font-stretch="normal"
    units-per-em="1000"
    panose-1="2 0 0 0 0 0 0 0 0 0"
    ascent="800"
    descent="-200"
    x-height="496"
    cap-height="600"
    bbox="-20 -112 934 765"
    underline-thickness="50"
    underline-position="-50"
    unicode-range="U+0020-U+20AC"
  />
<missing-glyph horiz-adv-x="251" 
 />
    <glyph glyph-name=".notdef" horiz-adv-x="251" 
 />
    <glyph glyph-name="space" unicode=" " horiz-adv-x="251" 
 />
    <glyph glyph-name="space" unicode="&#xa0;" horiz-adv-x="251" 
 />
    <glyph glyph-name="exclam" unicode="!" horiz-adv-x="246" 
d="M165 600v-450h-165v450h165zM0 0v111h165v-111h-165z" />
    <glyph glyph-name="quotedbl" unicode="&#x22;" horiz-adv-x="443" 
d="M53 600h39.999h18h54v-153c0 -19.333 -7.16699 -36 -21.5 -50s-31.166 -21 -50.499 -21h-11v112h-29h-53v112h53zM209.999 600h52.999h40h18h54v-153c0 -19.333 -7.16699 -36 -21.5 -50s-31.166 -21 -50.499 -21h-11v112h-29h-53v112z" />
    <glyph glyph-name="numbersign" unicode="#" horiz-adv-x="580" 
d="M0 0l59 168h-59v82h87l35 100h-122v81h151l59 169h82l-59 -169h112l59 169h83l-59 -169h59v-81h-88l-35 -100h123v-82h-151l-59 -168h-83l59 168h-112l-59 -168h-82zM317 350h-112l-35 -100h112z" />
    <glyph glyph-name="dollar" unicode="$" 
d="M0 445c0 20 7.16699 37.167 21.5 51.5s31.5 21.5 51.5 21.5h67h25v27v55h219v-55v-27h165v-8c0 -20 -7.16699 -37.167 -21.5 -51.5s-31.5 -21.5 -51.5 -21.5h-67h-244v-67h219h25h68c20 0 37 -7 51 -21s21 -31 21 -51v-9v-126v-9c0 -20 -7.16699 -37.167 -21.5 -51.5
s-31.5 -21.5 -51.5 -21.5h-67h-25v-81h-219v81h-25h-140v8c0 20.667 7.16699 38.167 21.5 52.5s31.5 21.5 51.5 21.5h92h219v126h-219h-25h-67c-20 0 -37.167 7.16699 -51.5 21.5s-21.5 31.5 -21.5 51.5v8v67v8z" />
    <glyph glyph-name="percent" unicode="%" horiz-adv-x="711" 
d="M84 0l336 600h115l-337 -600h-114zM180 600c20 0 37 -7.16699 51 -21.5s21 -31.166 21 -50.499v-10v-92v-10c0 -19.333 -7 -36 -21 -50s-31 -21 -51 -21h-109c-19.333 0 -36 7 -50 21s-21 30.667 -21 50v10v92v10c0 19.333 7 36.166 21 50.499s30.667 21.5 50 21.5h109z
M169 426v92h-87v-92h87zM547 255c20 0 37 -7 51 -21s21 -31 21 -51v-10v-92v-10c0 -19.333 -7 -36 -21 -50s-31 -21 -51 -21h-109c-19.333 0 -36 7 -50 21s-21 30.667 -21 50v10v92v10c0 20 7 37 21 51s30.667 21 50 21h109zM537 81v92h-88v-92h88z" />
    <glyph glyph-name="ampersand" unicode="&#x26;" horiz-adv-x="626" 
d="M0 526c0 20.667 7.16699 38.168 21.5 52.501s31.5 21.5 51.5 21.5h78h14h219v-82h-219v-148h130h94h160v-81h-89v-208v-10v-1c0 -19.333 -7 -35.833 -21 -49.5s-30.667 -20.5 -50 -20.5h-224h-14h-78c-20 0 -37.167 7.16699 -51.5 21.5s-21.5 31.5 -21.5 51.5v8v136
c0 19.333 7 36.166 21 50.499s30.667 21.5 50 21.5c-19.333 0 -36 7 -50 21s-21 30.667 -21 50v158v8zM295 289.001h-130v-208h130v208z" />
    <glyph glyph-name="quotesingle" unicode="'" horiz-adv-x="236" 
d="M0 600h52.999h40h18h54v-153c0 -19.333 -7.16699 -36 -21.5 -50s-31.166 -21 -50.499 -21h-11v112h-29h-53v112z" />
    <glyph glyph-name="parenleft" unicode="(" horiz-adv-x="344" 
d="M0 528c0 19.333 7 36.167 21 50.5s30.667 21.5 50 21.5h196c0 -20 -7 -37 -21 -51s-31 -21 -51 -21h-30v-457h30c20 0 37 -7 51 -21s21 -30.667 21 -50h-196c-19.333 0 -36 7 -50 21s-21 30.667 -21 50v457z" />
    <glyph glyph-name="parenright" unicode=")" horiz-adv-x="348" 
d="M267 71c0 -19.333 -7 -36.001 -21 -50.001s-30.667 -21 -50 -21h-196c0 19.333 7 36 21 50s31 21 51 21h30v457h-30c-20 0 -37 7 -51 21s-21 31 -21 51h196c19.333 0 36 -7.16699 50 -21.5s21 -31.166 21 -50.499v-457v0z" />
    <glyph glyph-name="asterisk" unicode="*" horiz-adv-x="367" 
d="M187 600v-76l65 38l41 -70l-65 -38l65 -38l-41 -70l-65 37v-75h-81v75l-66 -37l-40 70l65 38l-65 38l40 70l66 -38v76h81v0z" />
    <glyph glyph-name="plus" unicode="+" horiz-adv-x="462" 
d="M232 491v-151h150v-81h-150v-150h-82v150h-150v81h150v151h82v0z" />
    <glyph glyph-name="comma" unicode="," horiz-adv-x="256" 
d="M82 112h10.999h72v-153c0 -19.333 -7.16699 -36 -21.5 -50s-31.166 -21 -50.499 -21h-11v112h-82v112h82z" />
    <glyph glyph-name="hyphen" unicode="-" horiz-adv-x="462" 
d="M382 259h-382v81h382v-81v0z" />
    <glyph glyph-name="period" unicode="." horiz-adv-x="259" 
d="M0 112h165v-112h-165v112v0z" />
    <glyph glyph-name="slash" unicode="/" horiz-adv-x="577" 
d="M165 0h-165l337 600h164l-336 -600v0z" />
    <glyph glyph-name="zero" unicode="0" 
d="M147 600h18h219h18h74c20 0 37.167 -7.16699 51.5 -21.5s21.5 -31.833 21.5 -52.5v-8v-437v-8c0 -20 -7.16699 -37.167 -21.5 -51.5s-31.5 -21.5 -51.5 -21.5h-74h-18h-219h-18h-74c-20 0 -37.167 7.16699 -51.5 21.5s-21.5 31.5 -21.5 51.5v8v437v8
c0 20.667 7.16699 38.167 21.5 52.5s31.5 21.5 51.5 21.5h74zM316 455v-310h-83v310h83zM384 518h-219v-437h219v437z" />
    <glyph glyph-name="one" unicode="1" horiz-adv-x="341" 
d="M0 518l0.000976562 81.999h96h93c19.333 0 36.166 -7.16699 50.499 -21.5s21.5 -31.166 21.5 -50.499v-10v-64v-454h-165v454v64h-96z" />
    <glyph glyph-name="two" unicode="2" 
d="M165 0h-165v126v91c0 19.333 7 36.166 21 50.499s30.667 21.5 50 21.5h94h219v108v77v27v17h-338c-12.667 0 -23.5 4.5 -32.5 13.5s-13.5 19.833 -13.5 32.5v36h384h93c20 0 37 -7.16699 51 -21.5s21 -31.166 21 -50.499v-27v-27v-77v-118c0 -20 -7 -37 -21 -51
s-31 -21 -51 -21h-93h-219v-81v-45h338c12.667 0 23.5 -4.5 32.5 -13.5s13.5 -19.833 13.5 -32.5v-35h-384z" />
    <glyph glyph-name="three" unicode="3" horiz-adv-x="633" 
d="M151 81h14h219v208h-237v81h237v148h-219h-14h-151v10c0 19.333 7 36.166 21 50.499s30.667 21.5 50 21.5h80h14h219h14h78c20 0 37.167 -7.16699 51.5 -21.5s21.5 -31.833 21.5 -52.5v-8v-158c0 -19.333 -7 -36 -21 -50s-31 -21 -51 -21c20 0 37 -7.16699 51 -21.5
s21 -31.166 21 -50.499v-136v-8c0 -20 -7.16699 -37.167 -21.5 -51.5s-31.5 -21.5 -51.5 -21.5h-78h-14h-219h-14h-80c-19.333 0 -36 7 -50 21s-21 30.667 -21 50v10h151z" />
    <glyph glyph-name="four" unicode="4" 
d="M384 600h165v-600h-165v207h-219h-19c-20 0 -38.833 3.83301 -56.5 11.5s-33.167 18.167 -46.5 31.5s-23.833 29 -31.5 47s-11.5 37 -11.5 57v16v54v176h165v-176v-54v-16v-65h219v311z" />
    <glyph glyph-name="five" unicode="5" 
d="M549 564c0 -12.667 -4.5 -23.5 -13.5 -32.5s-19.833 -13.5 -32.5 -13.5h-338v-44v-82h219h93c20 0 37 -7 51 -21s21 -30.667 21 -50v-135v-60v-23v-32c0 -19.333 -7 -36 -21 -50s-31 -21 -51 -21h-93h-384v35c0 12.667 4.5 23.5 13.5 32.5s19.833 13.5 32.5 13.5h338v22
v23v60v125h-219h-94c-19.333 0 -36 7 -50 21s-21 30.667 -21 50v92v126h165h384v-36z" />
    <glyph glyph-name="six" unicode="6" 
d="M165 370l219 0.000976562h93c20 0 37 -7 51 -21s21 -31 21 -51v-217v-8c0 -20 -7.16699 -37.167 -21.5 -51.5s-31.5 -21.5 -51.5 -21.5h-78h-14h-219h-14h-80c-19.333 0 -36 7 -50 21s-21 30.667 -21 50v10v61v376v10c0 19.333 7 36.166 21 50.499s30.667 21.5 50 21.5
h80h14h219h14h78c20 0 37.167 -7.16699 51.5 -21.5s21.5 -31.833 21.5 -52.5v-8h-151h-14h-219v-148zM384 81.001v208h-219v-147v-61h219z" />
    <glyph glyph-name="seven" unicode="7" horiz-adv-x="603" 
d="M357 467l0.000976562 50.999h-192h-165v82h165h192h93c19.333 0 36.166 -7.16699 50.499 -21.5s21.5 -31.166 21.5 -50.499v-10v-51v-208h-165v-130h-165v-129h-165v129h165v130h165v208z" />
    <glyph glyph-name="eight" unicode="8" 
d="M384 81v208h-219v-208h219zM71 289c-19.333 0 -36 7.00098 -50 21.001s-21 30.667 -21 50v158v10c0 19.333 7 36.166 21 50.499s30.667 21.5 50 21.5h80h14h219h14h78c20 0 37.167 -7.16699 51.5 -21.5s21.5 -31.833 21.5 -52.5v-8v-158c0 -19.333 -7 -36 -21 -50
s-31 -21 -51 -21c20 0 37 -7.16699 51 -21.5s21 -31.166 21 -50.499v-136v-8c0 -20 -7.16699 -37.167 -21.5 -51.5s-31.5 -21.5 -51.5 -21.5h-78h-14h-219h-14h-80c-19.333 0 -36 7 -50 21s-21 30.667 -21 50v10v136c0 19.333 7 36.166 21 50.499s30.667 21.5 50 21.5z
M384 370.001v148h-219v-148h219z" />
    <glyph glyph-name="nine" unicode="9" horiz-adv-x="623" 
d="M384 229h-219h-94c-19.333 0 -36 7.16699 -50 21.5s-21 31.166 -21 50.499v217v8c0 20.667 7.16699 38.167 21.5 52.5s31.5 21.5 51.5 21.5h78h14h219h14h79c20 0 37 -7.16699 51 -21.5s21 -31.166 21 -50.499v-10v-60v-377v-10c0 -19.333 -7 -36 -21 -50
s-31 -21 -51 -21h-79h-14h-219h-14h-78c-20 0 -37.167 7.16699 -51.5 21.5s-21.5 31.5 -21.5 51.5v8h151h14h219v148zM165 518v-207h219v147v60h-219z" />
    <glyph glyph-name="colon" unicode=":" horiz-adv-x="259" 
d="M165 112v-112h-165v112h165zM165 496v-112h-165v112h165z" />
    <glyph glyph-name="semicolon" unicode=";" horiz-adv-x="246" 
d="M165 496v-112h-165v112h165zM82 112h10.999h72v-153c0 -19.333 -7.16699 -36 -21.5 -50s-31.166 -21 -50.499 -21h-11v112h-82v112h82z" />
    <glyph glyph-name="less" unicode="&#x3c;" horiz-adv-x="551" 
d="M0 300l305 300h165l-305 -300l305 -300h-165l-305 300v0z" />
    <glyph glyph-name="equal" unicode="=" horiz-adv-x="469" 
d="M0 168v82h382v-82h-382zM0 350v81h382v-81h-382z" />
    <glyph glyph-name="greater" unicode="&#x3e;" horiz-adv-x="551" 
d="M165 0h-165l305 300l-305 300h165l305 -300z" />
    <glyph glyph-name="question" unicode="?" horiz-adv-x="603" 
d="M357 450v68h-192v-81h-165v81v10c0 19.333 7 36.166 21 50.499s30.667 21.5 50 21.5h94h192h93c19.333 0 36.166 -7.16699 50.499 -21.5s21.5 -31.166 21.5 -50.499v-10v-68v-191v-10c0 -19.333 -7.16699 -36 -21.5 -50s-31.166 -21 -50.499 -21h-93v-58h-165v139h165
v191zM192 0v91h165v-91h-165z" />
    <glyph glyph-name="at" unicode="@" 
d="M549 214v-10c0 -20 -7 -37 -21 -51s-31 -21 -51 -21h-172c-20 0 -37 7 -51 21s-21 31 -21 51v10v172v10c0 19.333 7 36 21 50s31 21 51 21h79v51h-219v-57v-380h34h185h20h145v-8c0 -20 -7.16699 -37.167 -21.5 -51.5s-31.5 -21.5 -51.5 -21.5h-72h-20h-185h-34h-33h-61
c-19.333 0 -36 7 -50 21s-21 30.667 -21 50v390v57v8c0 20.667 7.16699 38.167 21.5 52.5s31.5 21.5 51.5 21.5h72h20h219h20h72c20 0 37.167 -7.16699 51.5 -21.5s21.5 -31.833 21.5 -52.5v-8v-81v-82v-141zM384 214v141v31h-68v-172h68z" />
    <glyph glyph-name="A" unicode="A" 
d="M0 0v81v34v327v76v9c0 20 7.16699 37.167 21.5 51.5s31.5 21.5 51.5 21.5h403c20 0 37.167 -7.16699 51.5 -21.5s21.5 -31.5 21.5 -51.5v-9v-369v-68v-8v-73h-73h-46h-46v81v126h-219v-126v-81h-64h-28h-73zM165 442v-153h219v229h-219v-76z" />
    <glyph glyph-name="B" unicode="B" horiz-adv-x="616" 
d="M384 81v208h-219v-159v-49h219zM476 600c20 0 37.167 -7.16602 51.5 -21.499s21.5 -31.5 21.5 -51.5v-167c0 -18.667 -6.33301 -34.834 -19 -48.501s-28 -21.167 -46 -22.5c18 -1.33301 33.333 -8.83301 46 -22.5s19 -30.167 19 -49.5v-144
c0 -20 -7.16699 -37.167 -21.5 -51.5s-31.5 -21.5 -51.5 -21.5h-476v600h476zM165 518.001v-148h219v148h-219z" />
    <glyph glyph-name="C" unicode="C" horiz-adv-x="626" 
d="M165 116v-35h219v104h165v-104v-8c0 -20 -7.16699 -37.167 -21.5 -51.5s-31.5 -21.5 -51.5 -21.5h-78h-14h-219h-14h-80c-19.333 0 -36 7 -50 21s-21 30.667 -21 50v10v35v402v10c0 20 7 37 21 51s30.667 21 50 21h80h14h219h14h78c20 0 37.167 -7.16699 51.5 -21.5
s21.5 -31.5 21.5 -51.5v-9v-103h-165v103h-219v-402z" />
    <glyph glyph-name="D" unicode="D" horiz-adv-x="636" 
d="M165 518v-437h226v76v361h-226zM556 71c0 -19.333 -7 -36.001 -21 -50.001s-30.667 -21 -50 -21h-80h-14h-233h-158v600h158h7h226h14h80c19.333 0 36 -7.16699 50 -21.5s21 -31.166 21 -50.499v-10v-361v-76v-10z" />
    <glyph glyph-name="E" unicode="E" horiz-adv-x="633" 
d="M165 370l269 0.000976562v-81h-269v-153v-55h219h14h151v-8c0 -20 -7.16699 -37.167 -21.5 -51.5s-31.5 -21.5 -51.5 -21.5h-78h-14h-219h-14h-80c-19.333 0 -36 7 -50 21s-21 30.667 -21 50v10v55v382v10c0 19.333 7 36.166 21 50.499s30.667 21.5 50 21.5h80h14h219h14
h78c20 0 37.167 -7.16699 51.5 -21.5s21.5 -31.833 21.5 -52.5v-8h-151h-14h-219v-148z" />
    <glyph glyph-name="F" unicode="F" horiz-adv-x="613" 
d="M165 0l-165 0.000976562v518v10c0 19.333 7 36.166 21 50.499s30.667 21.5 50 21.5h80h14h219h14h78c20 0 37.167 -7.16699 51.5 -21.5s21.5 -31.833 21.5 -52.5v-8h-151h-14h-219v-283h242v-82h-242v-153z" />
    <glyph glyph-name="G" unicode="G" 
d="M165 176v-94.999h219v289h93c20 0 37 -7 51 -21s21 -31 21 -51v-217v-8c0 -20 -7.16699 -37.167 -21.5 -51.5s-31.5 -21.5 -51.5 -21.5h-78h-14h-219h-14h-80c-19.333 0 -36 7 -50 21s-21 30.667 -21 50v10v95v342v10c0 19.333 7 36.166 21 50.499s30.667 21.5 50 21.5
h80h14h219h14h78c20 0 37.167 -7.16699 51.5 -21.5s21.5 -31.833 21.5 -52.5v-8h-151h-14h-219v-342z" />
    <glyph glyph-name="H" unicode="H" 
d="M165 370h219v230h165v-600h-165v289h-219v-289h-165v600h165v-82v-148z" />
    <glyph glyph-name="I" unicode="I" horiz-adv-x="246" 
d="M0 600h165v-600h-165v600v0z" />
    <glyph glyph-name="J" unicode="J" horiz-adv-x="439" 
d="M192 600h165v-519v-10c0 -19.333 -7 -36 -21 -50s-31 -21 -51 -21h-214c-19.333 0 -36 7 -50 21s-21 30.667 -21 50v10h192v519z" />
    <glyph glyph-name="K" unicode="K" horiz-adv-x="643" 
d="M384 289v311h165v-230v-8c0 -20 -7.16699 -37.167 -21.5 -51.5s-31.5 -21.5 -51.5 -21.5h-92v-82h92c20 0 37.167 -7.16699 51.5 -21.5s21.5 -31.5 21.5 -51.5v-8v-126h-165v207h-219v-207h-165v600h165v-311h219z" />
    <glyph glyph-name="L" unicode="L" horiz-adv-x="452" 
d="M357 81v-10c0 -19.333 -7 -36 -21 -50s-30.667 -21 -50 -21h-214c-20 0 -37 7 -51 21s-21 30.667 -21 50v10v519h165v-519h192z" />
    <glyph glyph-name="M" unicode="M" horiz-adv-x="1013" 
d="M126 600h39h219h38h104h23h220h23h68c20 0 37.167 -7.16699 51.5 -21.5s21.5 -31.833 21.5 -52.5v-8v-518h-164v518h-220v-518h-165v518h-219v-518h-165v518v8c0 20.667 7.16699 38.167 21.5 52.5s31.5 21.5 51.5 21.5h53z" />
    <glyph glyph-name="N" unicode="N" 
d="M147 600h18h219h18h74c20 0 37.167 -7.16699 51.5 -21.5s21.5 -31.833 21.5 -52.5v-8v-518h-165v518h-219v-518h-165v518v8c0 20.667 7.16699 38.167 21.5 52.5s31.5 21.5 51.5 21.5h74z" />
    <glyph glyph-name="O" unicode="O" 
d="M147 600h18h219h18h74c20 0 37.167 -7.16699 51.5 -21.5s21.5 -31.833 21.5 -52.5v-8v-437v-8c0 -20 -7.16699 -37.167 -21.5 -51.5s-31.5 -21.5 -51.5 -21.5h-74h-18h-219h-18h-74c-20 0 -37.167 7.16699 -51.5 21.5s-21.5 31.5 -21.5 51.5v8v437v8
c0 20.667 7.16699 38.167 21.5 52.5s31.5 21.5 51.5 21.5h74zM384 518h-219v-437h219v437z" />
    <glyph glyph-name="P" unicode="P" 
d="M165 446v-261h219v333h-219v-72zM0 528c0 19.333 7 36.167 21 50.5s30.667 21.5 50 21.5h65h29h219h28h64c20 0 37.167 -7.16699 51.5 -21.5s21.5 -31.833 21.5 -52.5v-8v-333v-8c0 -20.667 -7.16699 -38.167 -21.5 -52.5s-31.5 -21.5 -51.5 -21.5h-64h-28h-219v-103
h-165v446v72v10z" />
    <glyph glyph-name="Q" unicode="Q" 
d="M165 518v-437h219v347v90h-219zM549 428v-347.001h-165v-81h165v-82h-165v82h-219h-29h-63c-20 0 -37.167 7.16699 -51.5 21.5s-21.5 31.5 -21.5 51.5v8v437v8c0 20.667 7.16699 38.167 21.5 52.5s31.5 21.5 51.5 21.5h63h29h219h28h65c20 0 37 -7.16699 51 -21.5
s21 -31.166 21 -50.499v-10v-90z" />
    <glyph glyph-name="R" unicode="R" 
d="M384 185h-219v-185h-165v600h476c20 0 37.167 -7.16699 51.5 -21.5s21.5 -31.833 21.5 -52.5v-248c0 -25.333 -8.66699 -46.833 -26 -64.5s-38.333 -27.167 -63 -28.5h17c20 0 37 -7 51 -21s21 -31 21 -51v-113h-165v185zM165 266h219v252h-219v-252z" />
    <glyph glyph-name="S" unicode="S" 
d="M0 526c0 20.667 7.16699 38.167 21.5 52.5s31.5 21.5 51.5 21.5h476v-8c0 -20.667 -7.16699 -38.167 -21.5 -52.5s-31.5 -21.5 -51.5 -21.5h-67h-244v-126h312c20 0 37 -7 51 -21s21 -30.667 21 -50v-10v-230v-8c0 -20 -7.16699 -37.167 -21.5 -51.5
s-31.5 -21.5 -51.5 -21.5h-476v8c0 20 7.16699 37.167 21.5 51.5s31.5 21.5 51.5 21.5h311v230h-311c-20 0 -37.167 7.16699 -51.5 21.5s-21.5 31.5 -21.5 51.5v8v126v8z" />
    <glyph glyph-name="T" unicode="T" horiz-adv-x="633" 
d="M549 600v-74v-8h-192v-518h-165v518h-192v8v74h549z" />
    <glyph glyph-name="U" unicode="U" 
d="M0 436v82v8v74h91c20.667 0 38.167 -7.16699 52.5 -21.5s21.5 -31.833 21.5 -52.5v-8v-82v-269v-86h219v74v363v8c0 20.667 7.16699 38.167 21.5 52.5s31.5 21.5 51.5 21.5h92v-82v-363v-74v-8c0 -20 -7.16699 -37.167 -21.5 -51.5s-31.5 -21.5 -51.5 -21.5h-74h-18h-219
h-18h-74c-20 0 -37.167 7.16699 -51.5 21.5s-21.5 31.5 -21.5 51.5v8v355z" />
    <glyph glyph-name="V" unicode="V" 
d="M0 407v111v8v74h91c20.667 0 38.167 -7.16699 52.5 -21.5s21.5 -31.833 21.5 -52.5v-8v-111v-326h-165v326zM384 81v-81h-219v81h219zM384 526c0 20.667 7.16699 38.167 21.5 52.5s31.5 21.5 51.5 21.5h92v-82v-437h-165v437v8z" />
    <glyph glyph-name="W" unicode="W" horiz-adv-x="1013" 
d="M0 422v96v8v74h91c20.667 0 38.167 -7.16699 52.5 -21.5s21.5 -31.833 21.5 -52.5v-8v-96v-341h-165v341zM769 81v-81h-220v81h220zM769 526c0 20.667 7.16699 38.167 21.5 52.5s31.5 21.5 51.5 21.5h91v-82v-437h-164v437v8zM384 81v-81h-219v81h219zM384 600h165v-82
v-437h-165v437v82z" />
    <glyph glyph-name="X" unicode="X" horiz-adv-x="636" 
d="M165 600v-126v-82h219v82v126h165v-126v-8c0 -20.667 -7.16699 -38.167 -21.5 -52.5s-31.5 -21.5 -51.5 -21.5h-92v-81h92c20 0 37.167 -7.16699 51.5 -21.5s21.5 -31.5 21.5 -51.5v-9v-229h-165v229v82h-219v-82v-229h-165v229v10c0 20 7 37 21 51s30.667 21 50 21h94
v81h-94c-19.333 0 -36 7 -50 21s-21 31 -21 51v10v126h165z" />
    <glyph glyph-name="Y" unicode="Y" 
d="M384 207l-311 0.000976562c-20 0 -37.167 7.16699 -51.5 21.5s-21.5 31.5 -21.5 51.5v9v229v82h91c20.667 0 38.167 -7.16699 52.5 -21.5s21.5 -31.833 21.5 -52.5v-8v-229h219v229v10c0 19.333 7 36.166 21 50.499s31 21.5 51 21.5h93v-519v-10
c0 -19.333 -7 -36 -21 -50s-31 -21 -51 -21h-214c-19.333 0 -36 7 -50 21s-21 30.667 -21 50v10h192v126z" />
    <glyph glyph-name="Z" unicode="Z" horiz-adv-x="649" 
d="M384 600h165v-126v-8c0 -20.667 -7.16699 -38.167 -21.5 -52.5s-31.5 -21.5 -51.5 -21.5h-92v-81h-219v-156v-29v-36v-9h338c12.667 0 23.5 -4.5 32.5 -13.5s13.5 -19.833 13.5 -32.5v-35h-384h-165v90v36v29v84c0 20 7 37 21 51s30.667 21 50 21h94v81h219v82v44h-338
c-12.667 0 -23.5 4.5 -32.5 13.5s-13.5 19.833 -13.5 32.5v36h384z" />
    <glyph glyph-name="bracketleft" unicode="[" horiz-adv-x="351" 
d="M0 71v457v72h267v-72h-102v-457h102v-71h-267v71v0z" />
    <glyph glyph-name="backslash" unicode="\" horiz-adv-x="577" 
d="M0 600h164l337 -600h-165z" />
    <glyph glyph-name="bracketright" unicode="]" horiz-adv-x="348" 
d="M267 0h-267v71h102v457h-102v72h267v-72v-457v-71z" />
    <glyph glyph-name="asciicircum" unicode="^" horiz-adv-x="551" 
d="M98 548l97 81h53h53h53l97 -81h-106l-71 59l-70 -59h-106v0z" />
    <glyph glyph-name="underscore" unicode="_" horiz-adv-x="557" 
d="M482 -51h-482v51h482v-51z" />
    <glyph glyph-name="grave" unicode="`" horiz-adv-x="564" 
d="M380 548h-165l-46 81h165l46 -81v0z" />
    <glyph glyph-name="a" unicode="a" horiz-adv-x="624" 
d="M384 81v126h-219v-126h219zM0 215c0 20.667 7.16699 38.167 21.5 52.5s31.5 21.5 51.5 21.5h311v126h-219h-20h-145v8c0 20 7.16699 37.167 21.5 51.5s31.5 21.5 51.5 21.5h72h20h219h20h72c20 0 37.167 -7.16699 51.5 -21.5s21.5 -31.5 21.5 -51.5v-8v-334v-8
c0 -20 -7.16699 -37.167 -21.5 -51.5s-31.5 -21.5 -51.5 -21.5h-72h-20h-219h-20h-72c-20 0 -37.167 7.16699 -51.5 21.5s-21.5 31.5 -21.5 51.5v8v126v8z" />
    <glyph glyph-name="b" unicode="b" horiz-adv-x="620" 
d="M384 81v334h-219v-305v-29h219zM0 110v490h165v-104h219h37h55c20 0 37.167 -7.16699 51.5 -21.5s21.5 -31.5 21.5 -51.5v-8v-334v-8c0 -20 -7.16699 -37.167 -21.5 -51.5s-31.5 -21.5 -51.5 -21.5h-92h-219h-94c-19.333 0 -36 7 -50 21s-21 30.667 -21 50v10v29z" />
    <glyph glyph-name="c" unicode="c" horiz-adv-x="620" 
d="M384 185h165v-104v-8c0 -20 -7.16699 -37.167 -21.5 -51.5s-31.5 -21.5 -51.5 -21.5h-70h-22h-219h-22h-70c-20 0 -37.167 7.16699 -51.5 21.5s-21.5 31.5 -21.5 51.5v8v334v8c0 20 7.16699 37.167 21.5 51.5s31.5 21.5 51.5 21.5h61h31h219h31h61
c20 0 37.167 -7.16699 51.5 -21.5s21.5 -31.5 21.5 -51.5v-8v-104h-165v104h-219v-334h219v104z" />
    <glyph glyph-name="d" unicode="d" horiz-adv-x="628" 
d="M384 110v305h-219v-334h219v29zM549 71c0 -19.333 -7 -36 -21 -50s-30.667 -21 -50 -21h-94h-219h-92c-20 0 -37.167 7.16699 -51.5 21.5s-21.5 31.5 -21.5 51.5v8v334v8c0 20 7.16699 37.167 21.5 51.5s31.5 21.5 51.5 21.5h55h37h219v104h165v-490v-29v-10z" />
    <glyph glyph-name="e" unicode="e" horiz-adv-x="632" 
d="M165 415v-126h219v126h-219zM549 281c0 -20.667 -7.16699 -38.167 -21.5 -52.5s-31.5 -21.5 -51.5 -21.5h-311v-126h219h20h145v-8c0 -20 -7.16699 -37.167 -21.5 -51.5s-31.5 -21.5 -51.5 -21.5h-72h-20h-219h-20h-72c-20 0 -37.167 7.16699 -51.5 21.5
s-21.5 31.5 -21.5 51.5v8v334v8c0 20 7.16699 37.167 21.5 51.5s31.5 21.5 51.5 21.5h72h20h219h20h72c20 0 37.167 -7.16699 51.5 -21.5s21.5 -31.5 21.5 -51.5v-8v-126v-8z" />
    <glyph glyph-name="f" unicode="f" horiz-adv-x="445" 
d="M165 497v-262h172v-81h-172v-154h-165v497v21v10c0 20 7 37 21 51s30.667 21 50 21h57h37h120c20 0 37 -7 51 -21s21 -31 21 -51v-10h-192v-21z" />
    <glyph glyph-name="g" unicode="g" horiz-adv-x="628" 
d="M384 -22v126h-219h-26h-66c-20 0 -37.167 7.16699 -51.5 21.5s-21.5 31.5 -21.5 51.5v8v14v216v8c0 20 7.16699 37.167 21.5 51.5s31.5 21.5 51.5 21.5h66h26h219h27h67c19.333 0 36 -7 50 -21s21 -30.667 21 -50v-10v-23v-207v-81v-126v-10c0 -20 -7 -37 -21 -51
s-30.667 -21 -50 -21h-47h-47h-120c-20 0 -37 7 -51 21s-21 31 -21 51v10h192zM165 415v-216v-14h219v207v23h-219z" />
    <glyph glyph-name="h" unicode="h" horiz-adv-x="628" 
d="M384 496h27h65c20 0 37.167 -7.16699 51.5 -21.5s21.5 -31.5 21.5 -51.5v-8v-84v-331h-165v331v84h-219v-415h-165v600h165v-104h219z" />
    <glyph glyph-name="i" unicode="i" horiz-adv-x="243" 
d="M165 610v-82h-165v82h165zM165 496v-496h-165v496h165z" />
    <glyph glyph-name="j" unicode="j" horiz-adv-x="426" 
d="M192 496h165v-518v-10c0 -20 -7 -37 -21 -51s-31 -21 -51 -21h-70h-23h-121c-19.333 0 -36 7 -50 21s-21 31 -21 51v10h192v518zM357 610v-82h-165v82h165z" />
    <glyph glyph-name="k" unicode="k" horiz-adv-x="626" 
d="M384 289v81v126h165v-126v-8c0 -20 -7.16699 -37.167 -21.5 -51.5s-31.5 -21.5 -51.5 -21.5h-92v-82h92c20 0 37.167 -7.16699 51.5 -21.5s21.5 -31.5 21.5 -51.5v-8v-126h-165v126v81h-219v-207h-165v600h165v-311h219z" />
    <glyph glyph-name="l" unicode="l" horiz-adv-x="243" 
d="M0 600h165v-600h-165v600v0z" />
    <glyph glyph-name="m" unicode="m" horiz-adv-x="1023" 
d="M126 496h39h219h39h103h23h220h23h68c20.667 0 38.167 -7.16699 52.5 -21.5s21.5 -31.5 21.5 -51.5v-8v-415h-165v415h-220v-415h-165v415h-219v-415h-165v415v8c0 20 7.16699 37.167 21.5 51.5s31.5 21.5 51.5 21.5h53z" />
    <glyph glyph-name="n" unicode="n" 
d="M0 425c0 19.333 7 36 21 50s30.667 21 50 21h70h24h219h24h68c20 0 37.167 -7.16699 51.5 -21.5s21.5 -31.5 21.5 -51.5v-8v-415h-165v415h-219v-415h-165v415v10z" />
    <glyph glyph-name="o" unicode="o" 
d="M0 415v8c0 20 7.16699 37.167 21.5 51.5s31.5 21.5 51.5 21.5h63h29h219h29h63c20 0 37.167 -7.16699 51.5 -21.5s21.5 -31.5 21.5 -51.5v-8v-334v-8c0 -20 -7.16699 -37.167 -21.5 -51.5s-31.5 -21.5 -51.5 -21.5h-72h-20h-219h-20h-72
c-20 0 -37.167 7.16699 -51.5 21.5s-21.5 31.5 -21.5 51.5v8v334zM384 81v334h-219v-334h219z" />
    <glyph glyph-name="p" unicode="p" 
d="M165 386v-305h219v334h-219v-29zM0 425c0 19.333 7 36 21 50s30.667 21 50 21h94h219h92c20 0 37.167 -7.16699 51.5 -21.5s21.5 -31.5 21.5 -51.5v-8v-334v-8c0 -20 -7.16699 -37.167 -21.5 -51.5s-31.5 -21.5 -51.5 -21.5h-55h-37h-219v-104h-165v490v29v10z" />
    <glyph glyph-name="q" unicode="q" 
d="M384 415h-219v-334h219v305v29zM549 415v-29v-490h-165v104h-219h-37h-55c-20 0 -37.167 7.16699 -51.5 21.5s-21.5 31.5 -21.5 51.5v8v334v8c0 20 7.16699 37.167 21.5 51.5s31.5 21.5 51.5 21.5h92h219h94c19.333 0 36 -7 50 -21s21 -30.667 21 -50v-10z" />
    <glyph glyph-name="r" unicode="r" horiz-adv-x="626" 
d="M135 496h30h219h30h62c20 0 37.167 -7.16699 51.5 -21.5s21.5 -31.5 21.5 -51.5v-8v-104h-165v104h-219v-46v-369h-165v369v46v8c0 20 7.16699 37.167 21.5 51.5s31.5 21.5 51.5 21.5h62z" />
    <glyph glyph-name="s" unicode="s" horiz-adv-x="626" 
d="M549 73c0 -20 -7.16699 -37.166 -21.5 -51.499s-31.5 -21.5 -51.5 -21.5h-65h-27h-219h-165v8c0 20 7.16699 37.167 21.5 51.5s31.5 21.5 51.5 21.5h65h246v126h-219h-27h-67c-19.333 0 -36 7.16699 -50 21.5s-21 31.166 -21 50.499v10v126v8
c0 20 7.16699 37.167 21.5 51.5s31.5 21.5 51.5 21.5h65h27h246h138v-8c0 -20 -7.16699 -37.167 -21.5 -51.5s-31.5 -21.5 -51.5 -21.5h-92h-219v-105v-21h219h27h65c20 0 37.167 -7.16699 51.5 -21.5s21.5 -31.833 21.5 -52.5v-8v-126v-8z" />
    <glyph glyph-name="t" unicode="t" horiz-adv-x="443" 
d="M165 82h192v-10c0 -20 -7 -37 -21 -51s-31 -21 -51 -21h-120h-37h-57c-19.333 0 -36 7 -50 21s-21 31 -21 51v10v21v497h165v-104h172v-81h-172v-312v-21z" />
    <glyph glyph-name="u" unicode="u" 
d="M0 415v81h91c20.667 0 38.167 -7.16699 52.5 -21.5s21.5 -31.5 21.5 -51.5v-8v-334h219v334v8c0 20 7.16699 37.167 21.5 51.5s31.833 21.5 52.5 21.5h91v-81v-334v-8c0 -20 -7.16699 -37.167 -21.5 -51.5s-31.5 -21.5 -51.5 -21.5h-74h-18h-219h-18h-74
c-20 0 -37.167 7.16699 -51.5 21.5s-21.5 31.5 -21.5 51.5v8v334z" />
    <glyph glyph-name="v" unicode="v" horiz-adv-x="623" 
d="M0 339v76v8v73h91c20.667 0 38.167 -7.16699 52.5 -21.5s21.5 -31.5 21.5 -51.5v-8v-76v-258h-165v258zM549 347v-266h-165h-219v-81h219v81v334v8c0 20 7.16699 37.167 21.5 51.5s31.833 21.5 52.5 21.5h91v-73v-8v-68z" />
    <glyph glyph-name="w" unicode="w" horiz-adv-x="1020" 
d="M0 339v76v8v73h91c20.667 0 38.167 -7.16699 52.5 -21.5s21.5 -31.5 21.5 -51.5v-8v-76v-258h-165v258zM476 496h73v-73v-8v-68v-266h-165v334v8v73h74h18zM934 347v-266h-165h-220v-81h220v81v334v8c0 20 7.16699 37.167 21.5 51.5s31.5 21.5 51.5 21.5h92v-73v-8v-68z
M384 0h-219v81h219v-81z" />
    <glyph glyph-name="x" unicode="x" horiz-adv-x="626" 
d="M165 496v-126v-81h219v81v126h165v-126v-8c0 -20 -7.16699 -37.167 -21.5 -51.5s-31.5 -21.5 -51.5 -21.5h-92v-82h92c20 0 37.167 -7.16699 51.5 -21.5s21.5 -31.5 21.5 -51.5v-8v-126h-165v126v81h-219v-81v-126h-165v126v10c0 19.333 7 36 21 50s30.667 21 50 21h94
v82h-94c-19.333 0 -36 7 -50 21s-21 30.667 -21 50v10v126h165z" />
    <glyph glyph-name="y" unicode="y" 
d="M384 104h-218.999h-26h-66c-20 0 -37.167 7.16699 -51.5 21.5s-21.5 31.5 -21.5 51.5v8v64v166v81h91c20.667 0 38.167 -7.16699 52.5 -21.5s21.5 -31.5 21.5 -51.5v-8v-166v-64h219v168v62v10c0 19.333 7.16699 36 21.5 50s31.166 21 50.499 21h93v-71v-10v-62v-168v-81
v-126v-10c0 -20 -7 -37 -21 -51s-30.667 -21 -50 -21h-47h-47h-120c-20 0 -37 7 -51 21s-21 31 -21 51v10h192v126z" />
    <glyph glyph-name="z" unicode="z" horiz-adv-x="633" 
d="M384 496h165v-126v-8c0 -20 -7.16699 -37.167 -21.5 -51.5s-31.5 -21.5 -51.5 -21.5h-92v-82h-219v-81v-45h313c19.333 0 36 -7 50 -21s21 -30.667 21 -50v-10h-384h-165v126v10c0 19.333 7 36 21 50s30.667 21 50 21h94v82h219v81v45h-313c-19.333 0 -36 7 -50 21
s-21 30.667 -21 50v10h384z" />
    <glyph glyph-name="braceleft" unicode="{" horiz-adv-x="410" 
d="M0 264v71.001h53v193c0 19.333 7.16699 36.166 21.5 50.499s31.166 21.5 50.499 21.5h195v-72h-102v-157c0 -19.333 -7 -36 -21 -50s-30.667 -21 -50 -21c19.333 0 36 -7 50 -21s21 -31 21 -51v-157h102v-71h-195c-19.333 0 -36.166 7 -50.499 21s-21.5 30.667 -21.5 50
v193h-53z" />
    <glyph glyph-name="bar" unicode="|" horiz-adv-x="157" 
d="M0 630h75v-690h-75v690z" />
    <glyph glyph-name="braceright" unicode="}" horiz-adv-x="400" 
d="M267 71c0 -19.333 -7.16699 -36.001 -21.5 -50.001s-31.166 -21 -50.499 -21h-195v71h102v157c0 20 7 37 21 51s30.667 21 50 21c-19.333 0 -36 7 -50 21s-21 30.667 -21 50v157h-102v72h195c19.333 0 36.166 -7.16699 50.499 -21.5s21.5 -31.166 21.5 -50.499v-193h53
v-71h-53v-193z" />
    <glyph glyph-name="asciitilde" unicode="~" horiz-adv-x="557" 
d="M83 548v10c0 19.333 7 36 21 50s31 21 51 21h310v-9c0 -20 -7 -37 -21 -51s-30.667 -21 -50 -21h-311z" />
    <glyph glyph-name="exclamdown" unicode="&#xa1;" horiz-adv-x="246" 
d="M165 0.0371094v449.972h-165v-449.972h165zM0 600v-110.993h165v110.993h-165z" />
    <glyph glyph-name="cent" unicode="&#xa2;" horiz-adv-x="620" 
d="M549 152v-8c0 -20 -7.16699 -37.167 -21.5 -51.5s-31.833 -21.5 -52.5 -21.5h-69h-22v-72h-220v72h-22h-69c-20.667 0 -38.167 7.16699 -52.5 21.5s-21.5 31.5 -21.5 51.5v8v294v8c0 20 7.16699 37.167 21.5 51.5s31.833 21.5 52.5 21.5h61h30v72h220v-72h30h61
c20.667 0 38.167 -7.16699 52.5 -21.5s21.5 -31.5 21.5 -51.5v-8h-165h-80h-140v-294h140h80h165z" />
    <glyph glyph-name="sterling" unicode="&#xa3;" horiz-adv-x="495" 
d="M409 81v-10c0 -19.333 -7 -36 -21 -50s-30.667 -21 -50 -21h-214h-72v71v10v127h-52v82h52v60h-52v81h52v169h95c19.333 0 35.833 -7 49.5 -21s20.5 -30.667 20.5 -50v-98h85v-81h-85v-60h85v-82h-85v-127h192z" />
    <glyph glyph-name="yen" unicode="&#xa5;" 
d="M73 307c-20 0 -37.167 7.16699 -51.5 21.5s-21.5 31.5 -21.5 51.5v9v129v82h91c20.667 0 38.167 -7.16699 52.5 -21.5s21.5 -31.833 21.5 -52.5v-8v-129h219v129v8c0 20.667 7.16699 38.167 21.5 52.5s31.5 21.5 51.5 21.5h92v-82v-129v-9
c0 -20 -7.16699 -37.167 -21.5 -51.5s-31.5 -21.5 -51.5 -21.5h-119v-38h68v-82h-68v-40h68v-81h-68v-66h-165v66h-69v81h69v40h-69v82h69v38h-119v0z" />
    <glyph glyph-name="dieresis" unicode="&#xa8;" horiz-adv-x="495" 
d="M245 629v-81h-85v81h85zM389 629v-81h-86v81h86z" />
    <glyph glyph-name="acute" unicode="&#xb4;" horiz-adv-x="538" 
d="M169 548l46 81h165l-46 -81h-165z" />
    <glyph glyph-name="mu" unicode="&#xb5;" 
d="M165 -104h-165v600h94c19.333 0 36 -7 50 -21s21 -30.667 21 -50v-344h219h27h-27v344c0 19.333 7 36 21 50s30.667 21 50 21h94v-254v-161v-8v-73h-73h-65h-27h-219v-104z" />
    <glyph glyph-name="mu" unicode="&#x3bc;" 
d="M165 -104h-165v600h94c19.333 0 36 -7 50 -21s21 -30.667 21 -50v-344h219h27h-27v344c0 19.333 7 36 21 50s30.667 21 50 21h94v-254v-161v-8v-73h-73h-65h-27h-219v-104z" />
    <glyph glyph-name="cedilla" unicode="&#xb8;" horiz-adv-x="413" 
d="M170 112h81.999h11h72v-153c0 -19.333 -7.16699 -36 -21.5 -50s-31.166 -21 -50.499 -21h-11v112h-82v112z" />
    <glyph glyph-name="questiondown" unicode="&#xbf;" horiz-adv-x="603" 
d="M165.021 150.027l0.000976562 -67.9961h191.988v80.9951h164.99v-80.9951v-9.99902c0 -19.332 -7 -36.1641 -20.999 -50.4971c-13.999 -14.332 -30.665 -21.498 -49.998 -21.498h-93.9941h-191.988h-92.9941c-19.332 0 -36.1641 7.16602 -50.4971 21.498
c-14.332 14.333 -21.498 31.165 -21.498 50.4971v9.99902v67.9961v190.988v10c0 19.332 7.16602 35.9971 21.498 49.9961c14.333 13.999 31.165 20.999 50.4971 20.999h92.9941v57.9971h164.99v-138.992h-164.99v-190.988zM330.013 600v-90.9941h-164.99v90.9941h164.99z
" />
    <glyph glyph-name="Agrave" unicode="&#xc0;" 
d="M0 0v81v34v327v76v9c0 20 7.16699 37.167 21.5 51.5s31.5 21.5 51.5 21.5h403c20 0 37.167 -7.16699 51.5 -21.5s21.5 -31.5 21.5 -51.5v-9v-369v-68v-8v-73h-73h-46h-46v81v126h-219v-126v-81h-64h-28h-73zM165 442v-153h219v229h-219v-76zM380 668h-165l-46 81h165
l46 -81v0z" />
    <glyph glyph-name="Aacute" unicode="&#xc1;" 
d="M0 0v81v34v327v76v9c0 20 7.16699 37.167 21.5 51.5s31.5 21.5 51.5 21.5h403c20 0 37.167 -7.16699 51.5 -21.5s21.5 -31.5 21.5 -51.5v-9v-369v-68v-8v-73h-73h-46h-46v81v126h-219v-126v-81h-64h-28h-73zM165 442v-153h219v229h-219v-76zM169 668l46 81h165l-46 -81
h-165z" />
    <glyph glyph-name="Acircumflex" unicode="&#xc2;" 
d="M0 0v81v34v327v76v9c0 20 7.16699 37.167 21.5 51.5s31.5 21.5 51.5 21.5h403c20 0 37.167 -7.16699 51.5 -21.5s21.5 -31.5 21.5 -51.5v-9v-369v-68v-8v-73h-73h-46h-46v81v126h-219v-126v-81h-64h-28h-73zM165 442v-153h219v229h-219v-76zM98 668l97 81h53h53h53
l97 -81h-106l-71 59l-70 -59h-106z" />
    <glyph glyph-name="Atilde" unicode="&#xc3;" 
d="M0 0v81v34v327v76v9c0 20 7.16699 37.167 21.5 51.5s31.5 21.5 51.5 21.5h403c20 0 37.167 -7.16699 51.5 -21.5s21.5 -31.5 21.5 -51.5v-9v-369v-68v-8v-73h-73h-46h-46v81v126h-219v-126v-81h-64h-28h-73zM165 442v-153h219v229h-219v-76zM84 668v10
c0 19.333 7 36 21 50s31 21 51 21h310v-9c0 -20 -7 -37 -21 -51s-30.667 -21 -50 -21h-311z" />
    <glyph glyph-name="Adieresis" unicode="&#xc4;" 
d="M0 0v81v34v327v76v9c0 20 7.16699 37.167 21.5 51.5s31.5 21.5 51.5 21.5h403c20 0 37.167 -7.16699 51.5 -21.5s21.5 -31.5 21.5 -51.5v-9v-369v-68v-8v-73h-73h-46h-46v81v126h-219v-126v-81h-64h-28h-73zM165 442v-153h219v229h-219v-76zM245 749v-81h-85v81h85z
M389 749v-81h-86v81h86z" />
    <glyph glyph-name="Aring" unicode="&#xc5;" 
d="M0 527c0 20 7.16699 37.167 21.5 51.5s31.5 21.5 51.5 21.5h93c0 19.333 7 36.166 21 50.499s30.667 21.5 50 21.5h74c20 0 37 -7.16699 51 -21.5s21 -31.166 21 -50.499h93c20 0 37.167 -7.16699 51.5 -21.5s21.5 -31.5 21.5 -51.5v-527h-165v207h-219v-207h-165v527z
M165 289h218.998v229h-1c-1.33301 -18.667 -8.83301 -34.334 -22.5 -47.001s-30.167 -19 -49.5 -19h-74c-19.333 0 -35.666 6.33301 -48.999 19s-20.666 28.334 -21.999 47.001h-1v-229zM227.998 510h92v100h-92v-100z" />
    <glyph glyph-name="AE" unicode="&#xc6;" horiz-adv-x="767" 
d="M0 526c0 20.667 7.16699 38.167 21.5 52.5s31.5 21.5 51.5 21.5h547c20 0 37.167 -7.16699 51.5 -21.5s21.5 -31.833 21.5 -52.5v-8h-264v-188h100v-81h-100v-168h264v-8c0 -20 -7.16699 -37.167 -21.5 -51.5s-31.5 -21.5 -51.5 -21.5h-356v247h-99v-247h-165v526z
M264 329v189h-99v-189h99z" />
    <glyph glyph-name="Ccedilla" unicode="&#xc7;" horiz-adv-x="626" 
d="M230 82h153.999v103h165v-112c0 -20 -7.16699 -37.167 -21.5 -51.5s-31.5 -21.5 -51.5 -21.5h-151v-41c0 -19.333 -7.16699 -36 -21.5 -50s-31.166 -21 -50.499 -21h-11v112h-171c-19.333 0 -36 7 -50 21s-21 30.667 -21 50v457c0 20 7 37 21 51s30.667 21 50 21h405
c20 0 37.167 -7.16699 51.5 -21.5s21.5 -31.5 21.5 -51.5v-112h-165v103h-219v-437h65v1z" />
    <glyph glyph-name="Egrave" unicode="&#xc8;" horiz-adv-x="633" 
d="M165 370l269 0.000976562v-81h-269v-153v-55h219h14h151v-8c0 -20 -7.16699 -37.167 -21.5 -51.5s-31.5 -21.5 -51.5 -21.5h-78h-14h-219h-14h-80c-19.333 0 -36 7 -50 21s-21 30.667 -21 50v10v55v382v10c0 19.333 7 36.166 21 50.499s30.667 21.5 50 21.5h80h14h219h14
h78c20 0 37.167 -7.16699 51.5 -21.5s21.5 -31.833 21.5 -52.5v-8h-151h-14h-219v-148zM382 668.001h-165l-46 81h165l46 -81v0z" />
    <glyph glyph-name="Eacute" unicode="&#xc9;" horiz-adv-x="633" 
d="M165 370l269 0.000976562v-81h-269v-153v-55h219h14h151v-8c0 -20 -7.16699 -37.167 -21.5 -51.5s-31.5 -21.5 -51.5 -21.5h-78h-14h-219h-14h-80c-19.333 0 -36 7 -50 21s-21 30.667 -21 50v10v55v382v10c0 19.333 7 36.166 21 50.499s30.667 21.5 50 21.5h80h14h219h14
h78c20 0 37.167 -7.16699 51.5 -21.5s21.5 -31.833 21.5 -52.5v-8h-151h-14h-219v-148zM171 668.001l46 81h165l-46 -81h-165z" />
    <glyph glyph-name="Ecircumflex" unicode="&#xca;" horiz-adv-x="633" 
d="M165 370l269 0.000976562v-81h-269v-153v-55h219h14h151v-8c0 -20 -7.16699 -37.167 -21.5 -51.5s-31.5 -21.5 -51.5 -21.5h-78h-14h-219h-14h-80c-19.333 0 -36 7 -50 21s-21 30.667 -21 50v10v55v382v10c0 19.333 7 36.166 21 50.499s30.667 21.5 50 21.5h80h14h219h14
h78c20 0 37.167 -7.16699 51.5 -21.5s21.5 -31.833 21.5 -52.5v-8h-151h-14h-219v-148zM100 668.001l97 81h53h53h53l97 -81h-106l-71 59l-70 -59h-106z" />
    <glyph glyph-name="Edieresis" unicode="&#xcb;" horiz-adv-x="633" 
d="M165 370l269 0.000976562v-81h-269v-153v-55h219h14h151v-8c0 -20 -7.16699 -37.167 -21.5 -51.5s-31.5 -21.5 -51.5 -21.5h-78h-14h-219h-14h-80c-19.333 0 -36 7 -50 21s-21 30.667 -21 50v10v55v382v10c0 19.333 7 36.166 21 50.499s30.667 21.5 50 21.5h80h14h219h14
h78c20 0 37.167 -7.16699 51.5 -21.5s21.5 -31.833 21.5 -52.5v-8h-151h-14h-219v-148zM247 749.001v-81h-85v81h85zM391 749.001v-81h-86v81h86z" />
    <glyph glyph-name="Igrave" unicode="&#xcc;" horiz-adv-x="279" 
d="M33 600h165v-600h-165v600v0zM203 668h-165l-46 81h165l46 -81v0z" />
    <glyph glyph-name="Iacute" unicode="&#xcd;" horiz-adv-x="272" 
d="M0 600h165v-600h-165v600v0zM0 668l46 81h165l-46 -81h-165z" />
    <glyph glyph-name="Icircumflex" unicode="&#xce;" horiz-adv-x="416" 
d="M75 600h165v-600h-165v600v0zM-17 668l97 81h53h53h53l97 -81h-106l-71 59l-70 -59h-106z" />
    <glyph glyph-name="Idieresis" unicode="&#xcf;" horiz-adv-x="305" 
d="M30 600h165v-600h-165v600v0zM85 749v-81h-85v81h85zM229 749v-81h-86v81h86z" />
    <glyph glyph-name="Eth" unicode="&#xd0;" horiz-adv-x="695" 
d="M222 518v-178h58v-81h-58v-178h226v76v361h-226zM0 340l57 -0.000976562v260h158h7h226h14h80c19.333 0 36 -7.16699 50 -21.5s21 -31.166 21 -50.499v-10v-361v-76v-10c0 -19.333 -7 -36 -21 -50s-30.667 -21 -50 -21h-80h-14h-233h-158v259h-57v81z" />
    <glyph glyph-name="Ntilde" unicode="&#xd1;" 
d="M147 600h18h219h18h74c20 0 37.167 -7.16699 51.5 -21.5s21.5 -31.833 21.5 -52.5v-8v-518h-165v518h-219v-518h-165v518v8c0 20.667 7.16699 38.167 21.5 52.5s31.5 21.5 51.5 21.5h74zM84 668v10c0 19.333 7 36 21 50s31 21 51 21h310v-9c0 -20 -7 -37 -21 -51
s-30.667 -21 -50 -21h-311z" />
    <glyph glyph-name="Ograve" unicode="&#xd2;" 
d="M147 600h18h219h18h74c20 0 37.167 -7.16699 51.5 -21.5s21.5 -31.833 21.5 -52.5v-8v-437v-8c0 -20 -7.16699 -37.167 -21.5 -51.5s-31.5 -21.5 -51.5 -21.5h-74h-18h-219h-18h-74c-20 0 -37.167 7.16699 -51.5 21.5s-21.5 31.5 -21.5 51.5v8v437v8
c0 20.667 7.16699 38.167 21.5 52.5s31.5 21.5 51.5 21.5h74zM384 518h-219v-437h219v437zM380 668h-165l-46 81h165l46 -81v0z" />
    <glyph glyph-name="Oacute" unicode="&#xd3;" 
d="M147 600h18h219h18h74c20 0 37.167 -7.16699 51.5 -21.5s21.5 -31.833 21.5 -52.5v-8v-437v-8c0 -20 -7.16699 -37.167 -21.5 -51.5s-31.5 -21.5 -51.5 -21.5h-74h-18h-219h-18h-74c-20 0 -37.167 7.16699 -51.5 21.5s-21.5 31.5 -21.5 51.5v8v437v8
c0 20.667 7.16699 38.167 21.5 52.5s31.5 21.5 51.5 21.5h74zM384 518h-219v-437h219v437zM169 668l46 81h165l-46 -81h-165z" />
    <glyph glyph-name="Ocircumflex" unicode="&#xd4;" 
d="M147 600h18h219h18h74c20 0 37.167 -7.16699 51.5 -21.5s21.5 -31.833 21.5 -52.5v-8v-437v-8c0 -20 -7.16699 -37.167 -21.5 -51.5s-31.5 -21.5 -51.5 -21.5h-74h-18h-219h-18h-74c-20 0 -37.167 7.16699 -51.5 21.5s-21.5 31.5 -21.5 51.5v8v437v8
c0 20.667 7.16699 38.167 21.5 52.5s31.5 21.5 51.5 21.5h74zM384 518h-219v-437h219v437zM98 668l97 81h53h53h53l97 -81h-106l-71 59l-70 -59h-106z" />
    <glyph glyph-name="Otilde" unicode="&#xd5;" 
d="M147 600h18h219h18h74c20 0 37.167 -7.16699 51.5 -21.5s21.5 -31.833 21.5 -52.5v-8v-437v-8c0 -20 -7.16699 -37.167 -21.5 -51.5s-31.5 -21.5 -51.5 -21.5h-74h-18h-219h-18h-74c-20 0 -37.167 7.16699 -51.5 21.5s-21.5 31.5 -21.5 51.5v8v437v8
c0 20.667 7.16699 38.167 21.5 52.5s31.5 21.5 51.5 21.5h74zM384 518h-219v-437h219v437zM84 668v10c0 19.333 7 36 21 50s31 21 51 21h310v-9c0 -20 -7 -37 -21 -51s-30.667 -21 -50 -21h-311z" />
    <glyph glyph-name="Odieresis" unicode="&#xd6;" 
d="M147 600h18h219h18h74c20 0 37.167 -7.16699 51.5 -21.5s21.5 -31.833 21.5 -52.5v-8v-437v-8c0 -20 -7.16699 -37.167 -21.5 -51.5s-31.5 -21.5 -51.5 -21.5h-74h-18h-219h-18h-74c-20 0 -37.167 7.16699 -51.5 21.5s-21.5 31.5 -21.5 51.5v8v437v8
c0 20.667 7.16699 38.167 21.5 52.5s31.5 21.5 51.5 21.5h74zM384 518h-219v-437h219v437zM245 749v-81h-85v81h85zM389 749v-81h-86v81h86z" />
    <glyph glyph-name="Oslash" unicode="&#xd8;" 
d="M476 600c20 0 37.167 -7.16699 51.5 -21.5s21.5 -31.833 21.5 -52.5v-453c0 -20 -7.16699 -37.167 -21.5 -51.5s-31.5 -21.5 -51.5 -21.5h-403c-20 0 -37.167 7.16699 -51.5 21.5s-21.5 31.5 -21.5 51.5v453c0 20.667 7.16699 38.167 21.5 52.5s31.5 21.5 51.5 21.5h403z
M384 81v431l-156 -431h156zM165 518v-437l158 437h-158z" />
    <glyph glyph-name="Ugrave" unicode="&#xd9;" 
d="M0 436v82v8v74h91c20.667 0 38.167 -7.16699 52.5 -21.5s21.5 -31.833 21.5 -52.5v-8v-82v-269v-86h219v74v363v8c0 20.667 7.16699 38.167 21.5 52.5s31.5 21.5 51.5 21.5h92v-82v-363v-74v-8c0 -20 -7.16699 -37.167 -21.5 -51.5s-31.5 -21.5 -51.5 -21.5h-74h-18h-219
h-18h-74c-20 0 -37.167 7.16699 -51.5 21.5s-21.5 31.5 -21.5 51.5v8v355zM380 668h-165l-46 81h165l46 -81v0z" />
    <glyph glyph-name="Uacute" unicode="&#xda;" 
d="M0 436v82v8v74h91c20.667 0 38.167 -7.16699 52.5 -21.5s21.5 -31.833 21.5 -52.5v-8v-82v-269v-86h219v74v363v8c0 20.667 7.16699 38.167 21.5 52.5s31.5 21.5 51.5 21.5h92v-82v-363v-74v-8c0 -20 -7.16699 -37.167 -21.5 -51.5s-31.5 -21.5 -51.5 -21.5h-74h-18h-219
h-18h-74c-20 0 -37.167 7.16699 -51.5 21.5s-21.5 31.5 -21.5 51.5v8v355zM169 668l46 81h165l-46 -81h-165z" />
    <glyph glyph-name="Ucircumflex" unicode="&#xdb;" 
d="M0 436v82v8v74h91c20.667 0 38.167 -7.16699 52.5 -21.5s21.5 -31.833 21.5 -52.5v-8v-82v-269v-86h219v74v363v8c0 20.667 7.16699 38.167 21.5 52.5s31.5 21.5 51.5 21.5h92v-82v-363v-74v-8c0 -20 -7.16699 -37.167 -21.5 -51.5s-31.5 -21.5 -51.5 -21.5h-74h-18h-219
h-18h-74c-20 0 -37.167 7.16699 -51.5 21.5s-21.5 31.5 -21.5 51.5v8v355zM98 668l97 81h53h53h53l97 -81h-106l-71 59l-70 -59h-106z" />
    <glyph glyph-name="Udieresis" unicode="&#xdc;" 
d="M0 436v82v8v74h91c20.667 0 38.167 -7.16699 52.5 -21.5s21.5 -31.833 21.5 -52.5v-8v-82v-269v-86h219v74v363v8c0 20.667 7.16699 38.167 21.5 52.5s31.5 21.5 51.5 21.5h92v-82v-363v-74v-8c0 -20 -7.16699 -37.167 -21.5 -51.5s-31.5 -21.5 -51.5 -21.5h-74h-18h-219
h-18h-74c-20 0 -37.167 7.16699 -51.5 21.5s-21.5 31.5 -21.5 51.5v8v355zM245 749v-81h-85v81h85zM389 749v-81h-86v81h86z" />
    <glyph glyph-name="Yacute" unicode="&#xdd;" 
d="M384 207l-311 0.000976562c-20 0 -37.167 7.16699 -51.5 21.5s-21.5 31.5 -21.5 51.5v9v229v82h91c20.667 0 38.167 -7.16699 52.5 -21.5s21.5 -31.833 21.5 -52.5v-8v-229h219v229v10c0 19.333 7 36.166 21 50.499s31 21.5 51 21.5h93v-519v-10
c0 -19.333 -7 -36 -21 -50s-31 -21 -51 -21h-214c-19.333 0 -36 7 -50 21s-21 30.667 -21 50v10h192v126zM169 668.001l46 81h165l-46 -81h-165z" />
    <glyph glyph-name="Thorn" unicode="&#xde;" 
d="M384 81v344h-219v-344h219zM165 -70h-165v650h165v-74h311c20 0 37.167 -7.16699 51.5 -21.5s21.5 -31.5 21.5 -51.5v-352c0 -22 -6.33301 -41 -19 -57s-30.667 -24 -54 -24h-311v-70z" />
    <glyph glyph-name="germandbls" unicode="&#xdf;" 
d="M0 529c0 19.333 6.83301 36.001 20.5 50.001s30.167 21 49.5 21h406c20 0 37.167 -7.16699 51.5 -21.5s21.5 -31.833 21.5 -52.5v-166c0 -18.667 -6.33301 -34.834 -19 -48.501s-28.334 -21.167 -47.001 -22.5c18.667 -1.33301 34.334 -9 47.001 -23s19 -30.333 19 -49
v-144c0 -20 -7.16699 -37.167 -21.5 -51.5s-31.5 -21.5 -51.5 -21.5h-311v-82h-165v611zM384 81.001v208h-219v-208h219zM165 518.001v-148h219v148h-219z" />
    <glyph glyph-name="agrave" unicode="&#xe0;" horiz-adv-x="624" 
d="M384 81v126h-219v-126h219zM0 215c0 20.667 7.16699 38.167 21.5 52.5s31.5 21.5 51.5 21.5h311v126h-219h-20h-145v8c0 20 7.16699 37.167 21.5 51.5s31.5 21.5 51.5 21.5h72h20h219h20h72c20 0 37.167 -7.16699 51.5 -21.5s21.5 -31.5 21.5 -51.5v-8v-334v-8
c0 -20 -7.16699 -37.167 -21.5 -51.5s-31.5 -21.5 -51.5 -21.5h-72h-20h-219h-20h-72c-20 0 -37.167 7.16699 -51.5 21.5s-21.5 31.5 -21.5 51.5v8v126v8zM383 548h-165l-46 81h165l46 -81v0z" />
    <glyph glyph-name="aacute" unicode="&#xe1;" horiz-adv-x="624" 
d="M384 81v126h-219v-126h219zM0 215c0 20.667 7.16699 38.167 21.5 52.5s31.5 21.5 51.5 21.5h311v126h-219h-20h-145v8c0 20 7.16699 37.167 21.5 51.5s31.5 21.5 51.5 21.5h72h20h219h20h72c20 0 37.167 -7.16699 51.5 -21.5s21.5 -31.5 21.5 -51.5v-8v-334v-8
c0 -20 -7.16699 -37.167 -21.5 -51.5s-31.5 -21.5 -51.5 -21.5h-72h-20h-219h-20h-72c-20 0 -37.167 7.16699 -51.5 21.5s-21.5 31.5 -21.5 51.5v8v126v8zM169 548l46 81h165l-46 -81h-165z" />
    <glyph glyph-name="acircumflex" unicode="&#xe2;" horiz-adv-x="624" 
d="M384 81v126h-219v-126h219zM0 215c0 20.667 7.16699 38.167 21.5 52.5s31.5 21.5 51.5 21.5h311v126h-219h-20h-145v8c0 20 7.16699 37.167 21.5 51.5s31.5 21.5 51.5 21.5h72h20h219h20h72c20 0 37.167 -7.16699 51.5 -21.5s21.5 -31.5 21.5 -51.5v-8v-334v-8
c0 -20 -7.16699 -37.167 -21.5 -51.5s-31.5 -21.5 -51.5 -21.5h-72h-20h-219h-20h-72c-20 0 -37.167 7.16699 -51.5 21.5s-21.5 31.5 -21.5 51.5v8v126v8zM98 548l97 81h53h53h53l97 -81h-106l-71 59l-70 -59h-106z" />
    <glyph glyph-name="atilde" unicode="&#xe3;" horiz-adv-x="624" 
d="M83 548v10c0 19.333 7 36 21 50s31 21 51 21h310v-9c0 -20 -7 -37 -21 -51s-30.667 -21 -50 -21h-311zM384 81v126h-219v-126h219zM0 215c0 20.667 7.16699 38.167 21.5 52.5s31.5 21.5 51.5 21.5h311v126h-219h-20h-145v8c0 20 7.16699 37.167 21.5 51.5
s31.5 21.5 51.5 21.5h72h20h219h20h72c20 0 37.167 -7.16699 51.5 -21.5s21.5 -31.5 21.5 -51.5v-8v-334v-8c0 -20 -7.16699 -37.167 -21.5 -51.5s-31.5 -21.5 -51.5 -21.5h-72h-20h-219h-20h-72c-20 0 -37.167 7.16699 -51.5 21.5s-21.5 31.5 -21.5 51.5v8v126v8z" />
    <glyph glyph-name="adieresis" unicode="&#xe4;" horiz-adv-x="624" 
d="M384 81v126h-219v-126h219zM0 215c0 20.667 7.16699 38.167 21.5 52.5s31.5 21.5 51.5 21.5h311v126h-219h-20h-145v8c0 20 7.16699 37.167 21.5 51.5s31.5 21.5 51.5 21.5h72h20h219h20h72c20 0 37.167 -7.16699 51.5 -21.5s21.5 -31.5 21.5 -51.5v-8v-334v-8
c0 -20 -7.16699 -37.167 -21.5 -51.5s-31.5 -21.5 -51.5 -21.5h-72h-20h-219h-20h-72c-20 0 -37.167 7.16699 -51.5 21.5s-21.5 31.5 -21.5 51.5v8v126v8zM245 629v-81h-85v81h85zM389 629v-81h-86v81h86z" />
    <glyph glyph-name="aring" unicode="&#xe5;" horiz-adv-x="624" 
d="M317 765c20 0 37 -7.16699 51 -21.5s21 -31.166 21 -50.499v-10v-57v-10c0 -19.333 -7 -36 -21 -50s-31 -21 -51 -21h-74c-19.333 0 -36 7 -50 21s-21 30.667 -21 50v10v57v10c0 19.333 7 36.166 21 50.499s30.667 21.5 50 21.5h74zM326 606v97h-92v-97h92zM384 81v126
h-219v-126h219zM0 215c0 20.667 7.16699 38.167 21.5 52.5s31.5 21.5 51.5 21.5h311v126h-219h-20h-145v8c0 20 7.16699 37.167 21.5 51.5s31.5 21.5 51.5 21.5h72h20h219h20h72c20 0 37.167 -7.16699 51.5 -21.5s21.5 -31.5 21.5 -51.5v-8v-334v-8
c0 -20 -7.16699 -37.167 -21.5 -51.5s-31.5 -21.5 -51.5 -21.5h-72h-20h-219h-20h-72c-20 0 -37.167 7.16699 -51.5 21.5s-21.5 31.5 -21.5 51.5v8v126v8z" />
    <glyph glyph-name="ae" unicode="&#xe6;" horiz-adv-x="774" 
d="M0 207v8c0 20.667 7.16699 38.167 21.5 52.5s31.5 21.5 51.5 21.5h72h20h99v126h-99h-20h-145v8c0 20 7.16699 37.167 21.5 51.5s31.5 21.5 51.5 21.5h547c20 0 37.167 -7.16699 51.5 -21.5s21.5 -31.5 21.5 -51.5v-8v-126v-9c0 -20 -7.16699 -37.167 -21.5 -51.5
s-31.5 -21.5 -51.5 -21.5h-72h-19h-100v-78v-48h100h19h145v-8c0 -20 -7.16699 -37.167 -21.5 -51.5s-31.5 -21.5 -51.5 -21.5h-547c-20 0 -37.167 7.16699 -51.5 21.5s-21.5 31.5 -21.5 51.5v8v126zM529 289v63v63h-100v-126h100zM264 129v78h-99v-63v-63h99v48z" />
    <glyph glyph-name="ccedilla" unicode="&#xe7;" horiz-adv-x="620" 
d="M384 185h164.999v-112c0 -20 -7.16699 -37.167 -21.5 -51.5s-31.5 -21.5 -51.5 -21.5h-124v-41c0 -19.333 -7.16699 -36 -21.5 -50s-31.166 -21 -50.499 -21h-11v112h-196c-20 0 -37.167 7.16699 -51.5 21.5s-21.5 31.5 -21.5 51.5v350c0 20 7.16699 37.167 21.5 51.5
s31.5 21.5 51.5 21.5h403c20 0 37.167 -7.16699 51.5 -21.5s21.5 -31.5 21.5 -51.5v-112h-165v104h-219v-334h22v1h165v-1h32v104z" />
    <glyph glyph-name="egrave" unicode="&#xe8;" horiz-adv-x="632" 
d="M165 415v-126h219v126h-219zM549 281c0 -20.667 -7.16699 -38.167 -21.5 -52.5s-31.5 -21.5 -51.5 -21.5h-311v-126h219h20h145v-8c0 -20 -7.16699 -37.167 -21.5 -51.5s-31.5 -21.5 -51.5 -21.5h-72h-20h-219h-20h-72c-20 0 -37.167 7.16699 -51.5 21.5
s-21.5 31.5 -21.5 51.5v8v334v8c0 20 7.16699 37.167 21.5 51.5s31.5 21.5 51.5 21.5h72h20h219h20h72c20 0 37.167 -7.16699 51.5 -21.5s21.5 -31.5 21.5 -51.5v-8v-126v-8zM381 548h-165l-46 81h165l46 -81v0z" />
    <glyph glyph-name="eacute" unicode="&#xe9;" horiz-adv-x="632" 
d="M165 415v-126h219v126h-219zM549 281c0 -20.667 -7.16699 -38.167 -21.5 -52.5s-31.5 -21.5 -51.5 -21.5h-311v-126h219h20h145v-8c0 -20 -7.16699 -37.167 -21.5 -51.5s-31.5 -21.5 -51.5 -21.5h-72h-20h-219h-20h-72c-20 0 -37.167 7.16699 -51.5 21.5
s-21.5 31.5 -21.5 51.5v8v334v8c0 20 7.16699 37.167 21.5 51.5s31.5 21.5 51.5 21.5h72h20h219h20h72c20 0 37.167 -7.16699 51.5 -21.5s21.5 -31.5 21.5 -51.5v-8v-126v-8zM170 548l46 81h165l-46 -81h-165z" />
    <glyph glyph-name="ecircumflex" unicode="&#xea;" horiz-adv-x="632" 
d="M165 415v-126h219v126h-219zM549 281c0 -20.667 -7.16699 -38.167 -21.5 -52.5s-31.5 -21.5 -51.5 -21.5h-311v-126h219h20h145v-8c0 -20 -7.16699 -37.167 -21.5 -51.5s-31.5 -21.5 -51.5 -21.5h-72h-20h-219h-20h-72c-20 0 -37.167 7.16699 -51.5 21.5
s-21.5 31.5 -21.5 51.5v8v334v8c0 20 7.16699 37.167 21.5 51.5s31.5 21.5 51.5 21.5h72h20h219h20h72c20 0 37.167 -7.16699 51.5 -21.5s21.5 -31.5 21.5 -51.5v-8v-126v-8zM98 548l97 81h53h53h53l97 -81h-106l-71 59l-70 -59h-106z" />
    <glyph glyph-name="edieresis" unicode="&#xeb;" horiz-adv-x="632" 
d="M165 415v-126h219v126h-219zM549 281c0 -20.667 -7.16699 -38.167 -21.5 -52.5s-31.5 -21.5 -51.5 -21.5h-311v-126h219h20h145v-8c0 -20 -7.16699 -37.167 -21.5 -51.5s-31.5 -21.5 -51.5 -21.5h-72h-20h-219h-20h-72c-20 0 -37.167 7.16699 -51.5 21.5
s-21.5 31.5 -21.5 51.5v8v334v8c0 20 7.16699 37.167 21.5 51.5s31.5 21.5 51.5 21.5h72h20h219h20h72c20 0 37.167 -7.16699 51.5 -21.5s21.5 -31.5 21.5 -51.5v-8v-126v-8zM245 629v-81h-85v81h85zM389 629v-81h-86v81h86z" />
    <glyph glyph-name="igrave" unicode="&#xec;" horiz-adv-x="269" 
d="M191 496v-496h-165v496h165zM192 548h-165l-46 81h165z" />
    <glyph glyph-name="iacute" unicode="&#xed;" horiz-adv-x="266" 
d="M0 496h165v-496h-165v496zM-4 548l46 81h165l-46 -81h-165z" />
    <glyph glyph-name="icircumflex" unicode="&#xee;" horiz-adv-x="397" 
d="M75 496h165v-496h-165v496zM-20 548l97 81h53h53h53l97 -81h-106l-71 59l-70 -59h-106z" />
    <glyph glyph-name="idieresis" unicode="&#xef;" horiz-adv-x="305" 
d="M204 496v-496h-165v496h165zM85 629v-81h-85v81h85zM229 629v-81h-86v81h86z" />
    <glyph glyph-name="eth" unicode="&#xf0;" horiz-adv-x="623" 
d="M384 153v202h-219v-274h219v72zM549 71c0 -19.333 -7 -36 -21 -50s-31 -21 -51 -21h-93h-219h-92c-20 0 -37.167 7.16699 -51.5 21.5s-21.5 31.5 -21.5 51.5v8v274v8c0 20 7.16699 37.167 21.5 51.5s31.5 21.5 51.5 21.5h55h37h219v35h-55v81h55v48h165v-48h60v-81h-60
v-318v-72v-10z" />
    <glyph glyph-name="ntilde" unicode="&#xf1;" 
d="M0 425c0 19.333 7 36 21 50s30.667 21 50 21h70h24h219h24h68c20 0 37.167 -7.16699 51.5 -21.5s21.5 -31.5 21.5 -51.5v-8v-415h-165v415h-219v-415h-165v415v10zM84 548v10c0 19.333 7 36 21 50s31 21 51 21h310v-9c0 -20 -7 -37 -21 -51s-30.667 -21 -50 -21h-311z
" />
    <glyph glyph-name="ograve" unicode="&#xf2;" 
d="M0 415v8c0 20 7.16699 37.167 21.5 51.5s31.5 21.5 51.5 21.5h63h29h219h29h63c20 0 37.167 -7.16699 51.5 -21.5s21.5 -31.5 21.5 -51.5v-8v-334v-8c0 -20 -7.16699 -37.167 -21.5 -51.5s-31.5 -21.5 -51.5 -21.5h-72h-20h-219h-20h-72
c-20 0 -37.167 7.16699 -51.5 21.5s-21.5 31.5 -21.5 51.5v8v334zM384 81v334h-219v-334h219zM380 548h-165l-46 81h165l46 -81v0z" />
    <glyph glyph-name="oacute" unicode="&#xf3;" 
d="M0 415v8c0 20 7.16699 37.167 21.5 51.5s31.5 21.5 51.5 21.5h63h29h219h29h63c20 0 37.167 -7.16699 51.5 -21.5s21.5 -31.5 21.5 -51.5v-8v-334v-8c0 -20 -7.16699 -37.167 -21.5 -51.5s-31.5 -21.5 -51.5 -21.5h-72h-20h-219h-20h-72
c-20 0 -37.167 7.16699 -51.5 21.5s-21.5 31.5 -21.5 51.5v8v334zM384 81v334h-219v-334h219zM169 548l46 81h165l-46 -81h-165z" />
    <glyph glyph-name="ocircumflex" unicode="&#xf4;" 
d="M0 415v8c0 20 7.16699 37.167 21.5 51.5s31.5 21.5 51.5 21.5h63h29h219h29h63c20 0 37.167 -7.16699 51.5 -21.5s21.5 -31.5 21.5 -51.5v-8v-334v-8c0 -20 -7.16699 -37.167 -21.5 -51.5s-31.5 -21.5 -51.5 -21.5h-72h-20h-219h-20h-72
c-20 0 -37.167 7.16699 -51.5 21.5s-21.5 31.5 -21.5 51.5v8v334zM384 81v334h-219v-334h219zM98 548l97 81h53h53h53l97 -81h-106l-71 59l-70 -59h-106z" />
    <glyph glyph-name="otilde" unicode="&#xf5;" 
d="M0 415v8c0 20 7.16699 37.167 21.5 51.5s31.5 21.5 51.5 21.5h63h29h219h29h63c20 0 37.167 -7.16699 51.5 -21.5s21.5 -31.5 21.5 -51.5v-8v-334v-8c0 -20 -7.16699 -37.167 -21.5 -51.5s-31.5 -21.5 -51.5 -21.5h-72h-20h-219h-20h-72
c-20 0 -37.167 7.16699 -51.5 21.5s-21.5 31.5 -21.5 51.5v8v334zM384 81v334h-219v-334h219zM84 548v10c0 19.333 7 36 21 50s31 21 51 21h310v-9c0 -20 -7 -37 -21 -51s-30.667 -21 -50 -21h-311z" />
    <glyph glyph-name="odieresis" unicode="&#xf6;" 
d="M0 415v8c0 20 7.16699 37.167 21.5 51.5s31.5 21.5 51.5 21.5h63h29h219h29h63c20 0 37.167 -7.16699 51.5 -21.5s21.5 -31.5 21.5 -51.5v-8v-334v-8c0 -20 -7.16699 -37.167 -21.5 -51.5s-31.5 -21.5 -51.5 -21.5h-72h-20h-219h-20h-72
c-20 0 -37.167 7.16699 -51.5 21.5s-21.5 31.5 -21.5 51.5v8v334zM384 81v334h-219v-334h219zM245 629v-81h-85v81h85zM389 629v-81h-86v81h86z" />
    <glyph glyph-name="oslash" unicode="&#xf8;" 
d="M0 415v8c0 20 7.16699 37.167 21.5 51.5s31.5 21.5 51.5 21.5h63h29h219h28h64c20 0 37.167 -7.16699 51.5 -21.5s21.5 -31.5 21.5 -51.5v-8v-334v-8c0 -20 -7.16699 -37.167 -21.5 -51.5s-31.5 -21.5 -51.5 -21.5h-72h-20h-219h-20h-72
c-20 0 -37.167 7.16699 -51.5 21.5s-21.5 31.5 -21.5 51.5v8v334zM384 81v329l-156 -329h156zM165 415v-334l158 334h-158z" />
    <glyph glyph-name="ugrave" unicode="&#xf9;" 
d="M0 415v81h91c20.667 0 38.167 -7.16699 52.5 -21.5s21.5 -31.5 21.5 -51.5v-8v-334h219v334v8c0 20 7.16699 37.167 21.5 51.5s31.833 21.5 52.5 21.5h91v-81v-334v-8c0 -20 -7.16699 -37.167 -21.5 -51.5s-31.5 -21.5 -51.5 -21.5h-74h-18h-219h-18h-74
c-20 0 -37.167 7.16699 -51.5 21.5s-21.5 31.5 -21.5 51.5v8v334zM380 548h-165l-46 81h165l46 -81v0z" />
    <glyph glyph-name="uacute" unicode="&#xfa;" 
d="M0 415v81h91c20.667 0 38.167 -7.16699 52.5 -21.5s21.5 -31.5 21.5 -51.5v-8v-334h219v334v8c0 20 7.16699 37.167 21.5 51.5s31.833 21.5 52.5 21.5h91v-81v-334v-8c0 -20 -7.16699 -37.167 -21.5 -51.5s-31.5 -21.5 -51.5 -21.5h-74h-18h-219h-18h-74
c-20 0 -37.167 7.16699 -51.5 21.5s-21.5 31.5 -21.5 51.5v8v334zM170 548l46 81h165l-46 -81h-165z" />
    <glyph glyph-name="ucircumflex" unicode="&#xfb;" 
d="M0 415v81h91c20.667 0 38.167 -7.16699 52.5 -21.5s21.5 -31.5 21.5 -51.5v-8v-334h219v334v8c0 20 7.16699 37.167 21.5 51.5s31.833 21.5 52.5 21.5h91v-81v-334v-8c0 -20 -7.16699 -37.167 -21.5 -51.5s-31.5 -21.5 -51.5 -21.5h-74h-18h-219h-18h-74
c-20 0 -37.167 7.16699 -51.5 21.5s-21.5 31.5 -21.5 51.5v8v334zM98 548l97 81h53h53h53l97 -81h-106l-71 59l-70 -59h-106z" />
    <glyph glyph-name="udieresis" unicode="&#xfc;" 
d="M0 415v81h91c20.667 0 38.167 -7.16699 52.5 -21.5s21.5 -31.5 21.5 -51.5v-8v-334h219v334v8c0 20 7.16699 37.167 21.5 51.5s31.833 21.5 52.5 21.5h91v-81v-334v-8c0 -20 -7.16699 -37.167 -21.5 -51.5s-31.5 -21.5 -51.5 -21.5h-74h-18h-219h-18h-74
c-20 0 -37.167 7.16699 -51.5 21.5s-21.5 31.5 -21.5 51.5v8v334zM245 629v-81h-85v81h85zM389 629v-81h-86v81h86z" />
    <glyph glyph-name="yacute" unicode="&#xfd;" 
d="M384 104h-218.999h-26h-66c-20 0 -37.167 7.16699 -51.5 21.5s-21.5 31.5 -21.5 51.5v8v64v166v81h91c20.667 0 38.167 -7.16699 52.5 -21.5s21.5 -31.5 21.5 -51.5v-8v-166v-64h219v168v62v10c0 19.333 7.16699 36 21.5 50s31.166 21 50.499 21h93v-71v-10v-62v-168v-81
v-126v-10c0 -20 -7 -37 -21 -51s-30.667 -21 -50 -21h-47h-47h-120c-20 0 -37 7 -51 21s-21 31 -21 51v10h192v126zM169.001 548l46 81h165l-46 -81h-165z" />
    <glyph glyph-name="thorn" unicode="&#xfe;" 
d="M384 191v214h-219v-214h219zM165 0h-165v600h165v-114h311c20 0 37.167 -7.16699 51.5 -21.5s21.5 -31.5 21.5 -51.5v-222c0 -22 -6.33301 -41 -19 -57s-30.667 -24 -54 -24h-311v-110z" />
    <glyph glyph-name="ydieresis" unicode="&#xff;" 
d="M384 104h-218.999h-26h-66c-20 0 -37.167 7.16699 -51.5 21.5s-21.5 31.5 -21.5 51.5v8v64v166v81h91c20.667 0 38.167 -7.16699 52.5 -21.5s21.5 -31.5 21.5 -51.5v-8v-166v-64h219v168v62v10c0 19.333 7.16699 36 21.5 50s31.166 21 50.499 21h93v-71v-10v-62v-168v-81
v-126v-10c0 -20 -7 -37 -21 -51s-30.667 -21 -50 -21h-47h-47h-120c-20 0 -37 7 -51 21s-21 31 -21 51v10h192v126zM245.001 629v-81h-85v81h85zM389.001 629v-81h-86v81h86z" />
    <glyph glyph-name="OE" unicode="&#x152;" horiz-adv-x="764" 
d="M147 600h18h99h18h54h20h60h13h100h13h78c20 0 37.167 -7.16699 51.5 -21.5s21.5 -31.833 21.5 -52.5v-8h-151h-13h-100v-148h100v-81h-100v-208h100h13h151v-8c0 -20 -7.16699 -37.167 -21.5 -51.5s-31.5 -21.5 -51.5 -21.5h-78h-13h-100h-13h-60h-20h-54h-18h-99h-18
h-74c-20 0 -37.167 7.16699 -51.5 21.5s-21.5 31.5 -21.5 51.5v8v437v8c0 20.667 7.16699 38.167 21.5 52.5s31.5 21.5 51.5 21.5h74zM264 518h-99v-437h99v437z" />
    <glyph glyph-name="oe" unicode="&#x153;" horiz-adv-x="774" 
d="M0 415v8c0 20 7.16699 37.167 21.5 51.5s31.5 21.5 51.5 21.5h547c20 0 37.167 -7.16699 51.5 -21.5s21.5 -31.5 21.5 -51.5v-8v-126v-9c0 -20 -7.16699 -37.167 -21.5 -51.5s-31.5 -21.5 -51.5 -21.5h-72h-19h-100v-126h100h19h145v-8
c0 -20 -7.16699 -37.167 -21.5 -51.5s-31.5 -21.5 -51.5 -21.5h-547c-20 0 -37.167 7.16699 -51.5 21.5s-21.5 31.5 -21.5 51.5v8v334zM529 289v63v63h-100v-126h100zM264 81v334h-99v-334h99z" />
    <glyph glyph-name="Scaron" unicode="&#x160;" 
d="M0 526c0 20.667 7.16699 38.167 21.5 52.5s31.5 21.5 51.5 21.5h476v-8c0 -20.667 -7.16699 -38.167 -21.5 -52.5s-31.5 -21.5 -51.5 -21.5h-67h-244v-126h312c20 0 37 -7 51 -21s21 -30.667 21 -50v-10v-230v-8c0 -20 -7.16699 -37.167 -21.5 -51.5
s-31.5 -21.5 -51.5 -21.5h-476v8c0 20 7.16699 37.167 21.5 51.5s31.5 21.5 51.5 21.5h311v230h-311c-20 0 -37.167 7.16699 -51.5 21.5s-21.5 31.5 -21.5 51.5v8v126v8zM98 749.033l97 -80.9951h53h53h53l97 80.9951h-106l-71 -58.9961l-70 58.9961h-106z" />
    <glyph glyph-name="scaron" unicode="&#x161;" horiz-adv-x="626" 
d="M549 73c0 -20 -7.16699 -37.166 -21.5 -51.499s-31.5 -21.5 -51.5 -21.5h-65h-27h-219h-165v8c0 20 7.16699 37.167 21.5 51.5s31.5 21.5 51.5 21.5h65h246v126h-219h-27h-67c-19.333 0 -36 7.16699 -50 21.5s-21 31.166 -21 50.499v10v126v8
c0 20 7.16699 37.167 21.5 51.5s31.5 21.5 51.5 21.5h65h27h246h138v-8c0 -20 -7.16699 -37.167 -21.5 -51.5s-31.5 -21.5 -51.5 -21.5h-92h-219v-105v-21h219h27h65c20 0 37.167 -7.16699 51.5 -21.5s21.5 -31.833 21.5 -52.5v-8v-126v-8zM98 629.034l97 -80.9951h53h53h53
l97 80.9951h-106l-71 -58.9961l-70 58.9961h-106z" />
    <glyph glyph-name="Ydieresis" unicode="&#x178;" 
d="M384 207l-311 0.000976562c-20 0 -37.167 7.16699 -51.5 21.5s-21.5 31.5 -21.5 51.5v9v229v82h91c20.667 0 38.167 -7.16699 52.5 -21.5s21.5 -31.833 21.5 -52.5v-8v-229h219v229v10c0 19.333 7 36.166 21 50.499s31 21.5 51 21.5h93v-519v-10
c0 -19.333 -7 -36 -21 -50s-31 -21 -51 -21h-214c-19.333 0 -36 7 -50 21s-21 30.667 -21 50v10h192v126zM245 749.001v-81h-85v81h85zM389 749.001v-81h-86v81h86z" />
    <glyph glyph-name="Zcaron" unicode="&#x17d;" horiz-adv-x="649" 
d="M384 600h165v-126v-8c0 -20.667 -7.16699 -38.167 -21.5 -52.5s-31.5 -21.5 -51.5 -21.5h-92v-81h-219v-156v-29v-36v-9h338c12.667 0 23.5 -4.5 32.5 -13.5s13.5 -19.833 13.5 -32.5v-35h-384h-165v90v36v29v84c0 20 7 37 21 51s30.667 21 50 21h94v81h219v82v44h-338
c-12.667 0 -23.5 4.5 -32.5 13.5s-13.5 19.833 -13.5 32.5v36h384zM98 749.033l97 -80.9951h53h53h53l97 80.9951h-106l-71 -58.9961l-70 58.9961h-106z" />
    <glyph glyph-name="zcaron" unicode="&#x17e;" horiz-adv-x="633" 
d="M384 496h165v-126v-8c0 -20 -7.16699 -37.167 -21.5 -51.5s-31.5 -21.5 -51.5 -21.5h-92v-82h-219v-81v-45h313c19.333 0 36 -7 50 -21s21 -30.667 21 -50v-10h-384h-165v126v10c0 19.333 7 36 21 50s30.667 21 50 21h94v82h219v81v45h-313c-19.333 0 -36 7 -50 21
s-21 30.667 -21 50v10h384zM98 629.033l97 -80.9951h53h53h53l97 80.9951h-106l-71 -58.9961l-70 58.9961h-106z" />
    <glyph glyph-name="circumflex" unicode="&#x2c6;" horiz-adv-x="570" 
d="M98 548l97 81h53h53h53l97 -81h-106l-71 59l-70 -59h-106z" />
    <glyph glyph-name="tilde" unicode="&#x2dc;" horiz-adv-x="551" 
d="M83 548v10c0 19.333 7 36 21 50s31 21 51 21h310v-9c0 -20 -7 -37 -21 -51s-30.667 -21 -50 -21h-311z" />
    <glyph glyph-name="endash" unicode="&#x2013;" horiz-adv-x="462" 
d="M382 259h-382v81h382v-81z" />
    <glyph glyph-name="emdash" unicode="&#x2014;" horiz-adv-x="554" 
d="M472 259h-472v81h472v-81z" />
    <glyph glyph-name="quoteleft" unicode="&#x2018;" horiz-adv-x="252" 
d="M165 376h-52.999h-40h-18h-54v153c0 19.333 7.16699 36 21.5 50s31.166 21 50.499 21h11v-112h29h53v-112z" />
    <glyph glyph-name="quoteright" unicode="&#x2019;" horiz-adv-x="259" 
d="M0 600h52.999h40h18h54v-153c0 -19.333 -7.16699 -36 -21.5 -50s-31.166 -21 -50.499 -21h-11v112h-29h-53v112z" />
    <glyph glyph-name="quotedblleft" unicode="&#x201c;" horiz-adv-x="452" 
d="M375 376h-52.999h-40h-18h-54v153c0 19.333 7.16699 36 21.5 50s31.166 21 50.499 21h11v-112h29h53v-112zM165.001 376h-52.999h-40h-18h-54v153c0 19.333 7.16699 36 21.5 50s31.166 21 50.499 21h11v-112h29h53v-112z" />
    <glyph glyph-name="quotedblright" unicode="&#x201d;" horiz-adv-x="466" 
d="M0 600h52.999h40h18h54v-153c0 -19.333 -7.16699 -36 -21.5 -50s-31.166 -21 -50.499 -21h-11v112h-29h-53v112zM209.999 600h52.999h40h18h54v-153c0 -19.333 -7.16699 -36 -21.5 -50s-31.166 -21 -50.499 -21h-11v112h-29h-53v112z" />
    <glyph glyph-name="Euro" unicode="&#x20ac;" 
d="M200 418l129 0.000976562v-85h-129v-67h129v-85h-129v-65v-35h184v104h165v-104v-8c0 -20 -7.16699 -37.167 -21.5 -51.5s-31.5 -21.5 -51.5 -21.5h-78h-14h-219h-14h-44c-19.333 0 -36 7 -50 21s-21 30.667 -21 50v10v35v65h-36v85h36v67h-36v85h36v100v10
c0 19.333 7 36.166 21 50.499s30.667 21.5 50 21.5h44h14h219h14h78c20 0 37.167 -7.16699 51.5 -21.5s21.5 -31.833 21.5 -52.5v-8v-103h-165v103h-184v-100z" />
    <glyph glyph-name=".null" horiz-adv-x="0" 
 />
    <glyph glyph-name="nonmarkingreturn" horiz-adv-x="251" 
 />
  </font>
</defs>
</svg>
